<mxfile host="app.diagrams.net" modified="2024-06-11T20:11:46.789Z" agent="Mozilla/5.0 (Windows NT 10.0; Win64; x64) AppleWebKit/537.36 (KHTML, like Gecko) Chrome/125.0.0.0 Safari/537.36" etag="Rt5beO59JiqyR2YVzKNd" version="24.5.3" type="device">
  <diagram name="Page-1" id="L2g36dSi_gH8adnjgN_J">
    <mxGraphModel dx="2835" dy="1050" grid="1" gridSize="10" guides="1" tooltips="1" connect="1" arrows="1" fold="1" page="1" pageScale="1" pageWidth="850" pageHeight="1100" math="0" shadow="0">
      <root>
        <mxCell id="0" />
        <mxCell id="1" parent="0" />
        <mxCell id="Sw0v2CN7E1eXY13TFNiP-1" style="edgeStyle=orthogonalEdgeStyle;rounded=0;orthogonalLoop=1;jettySize=auto;html=1;dashed=1;endArrow=none;endFill=0;align=center;" edge="1" parent="1" source="Sw0v2CN7E1eXY13TFNiP-2">
          <mxGeometry relative="1" as="geometry">
            <mxPoint x="-465" y="1650" as="targetPoint" />
          </mxGeometry>
        </mxCell>
        <mxCell id="Sw0v2CN7E1eXY13TFNiP-2" value="JobSeeker" style="shape=umlActor;verticalLabelPosition=bottom;verticalAlign=top;html=1;align=center;" vertex="1" parent="1">
          <mxGeometry x="-480" y="330" width="30" height="60" as="geometry" />
        </mxCell>
        <mxCell id="Sw0v2CN7E1eXY13TFNiP-3" value="Employer" style="shape=umlActor;verticalLabelPosition=bottom;verticalAlign=top;html=1;align=center;" vertex="1" parent="1">
          <mxGeometry x="-390" y="330" width="30" height="60" as="geometry" />
        </mxCell>
        <mxCell id="Sw0v2CN7E1eXY13TFNiP-4" value="Admin" style="shape=umlActor;verticalLabelPosition=bottom;verticalAlign=top;html=1;align=center;" vertex="1" parent="1">
          <mxGeometry x="-290" y="330" width="30" height="60" as="geometry" />
        </mxCell>
        <mxCell id="Sw0v2CN7E1eXY13TFNiP-5" style="edgeStyle=orthogonalEdgeStyle;rounded=0;orthogonalLoop=1;jettySize=auto;html=1;dashed=1;endArrow=none;endFill=0;entryX=0.5;entryY=0;entryDx=0;entryDy=0;entryPerimeter=0;align=center;" edge="1" parent="1" target="Sw0v2CN7E1eXY13TFNiP-8">
          <mxGeometry relative="1" as="geometry">
            <mxPoint x="-375.23" y="1511.333251953125" as="targetPoint" />
            <mxPoint x="-375.23" y="390" as="sourcePoint" />
          </mxGeometry>
        </mxCell>
        <mxCell id="Sw0v2CN7E1eXY13TFNiP-6" style="edgeStyle=orthogonalEdgeStyle;rounded=0;orthogonalLoop=1;jettySize=auto;html=1;dashed=1;endArrow=none;endFill=0;entryX=0.5;entryY=0;entryDx=0;entryDy=0;entryPerimeter=0;align=center;" edge="1" parent="1" target="Sw0v2CN7E1eXY13TFNiP-9">
          <mxGeometry relative="1" as="geometry">
            <mxPoint x="-275.45" y="1511.333251953125" as="targetPoint" />
            <mxPoint x="-275.45" y="390" as="sourcePoint" />
          </mxGeometry>
        </mxCell>
        <mxCell id="Sw0v2CN7E1eXY13TFNiP-7" value="JobSeeker" style="shape=umlActor;verticalLabelPosition=bottom;verticalAlign=top;html=1;align=center;" vertex="1" parent="1">
          <mxGeometry x="-480" y="1640" width="30" height="60" as="geometry" />
        </mxCell>
        <mxCell id="Sw0v2CN7E1eXY13TFNiP-8" value="Employer" style="shape=umlActor;verticalLabelPosition=bottom;verticalAlign=top;html=1;align=center;" vertex="1" parent="1">
          <mxGeometry x="-390" y="1640" width="30" height="60" as="geometry" />
        </mxCell>
        <mxCell id="Sw0v2CN7E1eXY13TFNiP-9" value="Admin" style="shape=umlActor;verticalLabelPosition=bottom;verticalAlign=top;html=1;align=center;" vertex="1" parent="1">
          <mxGeometry x="-290" y="1640" width="30" height="60" as="geometry" />
        </mxCell>
        <mxCell id="Sw0v2CN7E1eXY13TFNiP-10" value="JobPortal" style="shape=umlLifeline;perimeter=lifelinePerimeter;whiteSpace=wrap;html=1;container=1;dropTarget=0;collapsible=0;recursiveResize=0;outlineConnect=0;portConstraint=eastwest;newEdgeStyle={&quot;curved&quot;:0,&quot;rounded&quot;:0};align=center;" vertex="1" parent="1">
          <mxGeometry x="-170" y="360" width="100" height="1300" as="geometry" />
        </mxCell>
        <mxCell id="Sw0v2CN7E1eXY13TFNiP-74" value="" style="html=1;points=[[0,0,0,0,5],[0,1,0,0,-5],[1,0,0,0,5],[1,1,0,0,-5]];perimeter=orthogonalPerimeter;outlineConnect=0;targetShapes=umlLifeline;portConstraint=eastwest;newEdgeStyle={&quot;curved&quot;:0,&quot;rounded&quot;:0};" vertex="1" parent="Sw0v2CN7E1eXY13TFNiP-10">
          <mxGeometry x="45" y="195" width="10" height="65" as="geometry" />
        </mxCell>
        <mxCell id="Sw0v2CN7E1eXY13TFNiP-75" value="" style="html=1;points=[[0,0,0,0,5],[0,1,0,0,-5],[1,0,0,0,5],[1,1,0,0,-5]];perimeter=orthogonalPerimeter;outlineConnect=0;targetShapes=umlLifeline;portConstraint=eastwest;newEdgeStyle={&quot;curved&quot;:0,&quot;rounded&quot;:0};" vertex="1" parent="Sw0v2CN7E1eXY13TFNiP-10">
          <mxGeometry x="45" y="302" width="10" height="88" as="geometry" />
        </mxCell>
        <mxCell id="Sw0v2CN7E1eXY13TFNiP-78" value="" style="html=1;points=[[0,0,0,0,5],[0,1,0,0,-5],[1,0,0,0,5],[1,1,0,0,-5]];perimeter=orthogonalPerimeter;outlineConnect=0;targetShapes=umlLifeline;portConstraint=eastwest;newEdgeStyle={&quot;curved&quot;:0,&quot;rounded&quot;:0};" vertex="1" parent="Sw0v2CN7E1eXY13TFNiP-10">
          <mxGeometry x="45" y="520" width="10" height="90" as="geometry" />
        </mxCell>
        <mxCell id="Sw0v2CN7E1eXY13TFNiP-79" value="" style="html=1;points=[[0,0,0,0,5],[0,1,0,0,-5],[1,0,0,0,5],[1,1,0,0,-5]];perimeter=orthogonalPerimeter;outlineConnect=0;targetShapes=umlLifeline;portConstraint=eastwest;newEdgeStyle={&quot;curved&quot;:0,&quot;rounded&quot;:0};" vertex="1" parent="Sw0v2CN7E1eXY13TFNiP-10">
          <mxGeometry x="45" y="660" width="10" height="80" as="geometry" />
        </mxCell>
        <mxCell id="Sw0v2CN7E1eXY13TFNiP-84" value="" style="html=1;points=[[0,0,0,0,5],[0,1,0,0,-5],[1,0,0,0,5],[1,1,0,0,-5]];perimeter=orthogonalPerimeter;outlineConnect=0;targetShapes=umlLifeline;portConstraint=eastwest;newEdgeStyle={&quot;curved&quot;:0,&quot;rounded&quot;:0};" vertex="1" parent="Sw0v2CN7E1eXY13TFNiP-10">
          <mxGeometry x="45" y="1230" width="10" height="33" as="geometry" />
        </mxCell>
        <mxCell id="Sw0v2CN7E1eXY13TFNiP-89" value="" style="html=1;points=[[0,0,0,0,5],[0,1,0,0,-5],[1,0,0,0,5],[1,1,0,0,-5]];perimeter=orthogonalPerimeter;outlineConnect=0;targetShapes=umlLifeline;portConstraint=eastwest;newEdgeStyle={&quot;curved&quot;:0,&quot;rounded&quot;:0};" vertex="1" parent="Sw0v2CN7E1eXY13TFNiP-10">
          <mxGeometry x="45" y="1040" width="10" height="60" as="geometry" />
        </mxCell>
        <mxCell id="Sw0v2CN7E1eXY13TFNiP-90" value="" style="html=1;points=[[0,0,0,0,5],[0,1,0,0,-5],[1,0,0,0,5],[1,1,0,0,-5]];perimeter=orthogonalPerimeter;outlineConnect=0;targetShapes=umlLifeline;portConstraint=eastwest;newEdgeStyle={&quot;curved&quot;:0,&quot;rounded&quot;:0};" vertex="1" parent="Sw0v2CN7E1eXY13TFNiP-10">
          <mxGeometry x="45" y="1140" width="10" height="50" as="geometry" />
        </mxCell>
        <mxCell id="Sw0v2CN7E1eXY13TFNiP-11" value="JobPortal" style="html=1;whiteSpace=wrap;align=center;" vertex="1" parent="1">
          <mxGeometry x="-175" y="1660" width="110" height="50" as="geometry" />
        </mxCell>
        <mxCell id="Sw0v2CN7E1eXY13TFNiP-12" value="Job" style="shape=umlLifeline;perimeter=lifelinePerimeter;whiteSpace=wrap;html=1;container=1;dropTarget=0;collapsible=0;recursiveResize=0;outlineConnect=0;portConstraint=eastwest;newEdgeStyle={&quot;curved&quot;:0,&quot;rounded&quot;:0};align=center;" vertex="1" parent="1">
          <mxGeometry x="25" y="360" width="100" height="1300" as="geometry" />
        </mxCell>
        <mxCell id="Sw0v2CN7E1eXY13TFNiP-71" value="" style="html=1;points=[[0,0,0,0,5],[0,1,0,0,-5],[1,0,0,0,5],[1,1,0,0,-5]];perimeter=orthogonalPerimeter;outlineConnect=0;targetShapes=umlLifeline;portConstraint=eastwest;newEdgeStyle={&quot;curved&quot;:0,&quot;rounded&quot;:0};" vertex="1" parent="Sw0v2CN7E1eXY13TFNiP-12">
          <mxGeometry x="45" y="549" width="10" height="40" as="geometry" />
        </mxCell>
        <mxCell id="Sw0v2CN7E1eXY13TFNiP-80" value="" style="html=1;points=[[0,0,0,0,5],[0,1,0,0,-5],[1,0,0,0,5],[1,1,0,0,-5]];perimeter=orthogonalPerimeter;outlineConnect=0;targetShapes=umlLifeline;portConstraint=eastwest;newEdgeStyle={&quot;curved&quot;:0,&quot;rounded&quot;:0};" vertex="1" parent="Sw0v2CN7E1eXY13TFNiP-12">
          <mxGeometry x="45" y="888" width="10" height="24" as="geometry" />
        </mxCell>
        <mxCell id="Sw0v2CN7E1eXY13TFNiP-81" value="" style="html=1;points=[[0,0,0,0,5],[0,1,0,0,-5],[1,0,0,0,5],[1,1,0,0,-5]];perimeter=orthogonalPerimeter;outlineConnect=0;targetShapes=umlLifeline;portConstraint=eastwest;newEdgeStyle={&quot;curved&quot;:0,&quot;rounded&quot;:0};" vertex="1" parent="Sw0v2CN7E1eXY13TFNiP-12">
          <mxGeometry x="45" y="988" width="10" height="24" as="geometry" />
        </mxCell>
        <mxCell id="Sw0v2CN7E1eXY13TFNiP-82" value="" style="html=1;points=[[0,0,0,0,5],[0,1,0,0,-5],[1,0,0,0,5],[1,1,0,0,-5]];perimeter=orthogonalPerimeter;outlineConnect=0;targetShapes=umlLifeline;portConstraint=eastwest;newEdgeStyle={&quot;curved&quot;:0,&quot;rounded&quot;:0};" vertex="1" parent="Sw0v2CN7E1eXY13TFNiP-12">
          <mxGeometry x="45" y="1165" width="10" height="30" as="geometry" />
        </mxCell>
        <mxCell id="Sw0v2CN7E1eXY13TFNiP-13" value="Job" style="html=1;whiteSpace=wrap;align=center;" vertex="1" parent="1">
          <mxGeometry x="20" y="1660" width="110" height="50" as="geometry" />
        </mxCell>
        <mxCell id="Sw0v2CN7E1eXY13TFNiP-14" value="JobApplication" style="shape=umlLifeline;perimeter=lifelinePerimeter;whiteSpace=wrap;html=1;container=1;dropTarget=0;collapsible=0;recursiveResize=0;outlineConnect=0;portConstraint=eastwest;newEdgeStyle={&quot;curved&quot;:0,&quot;rounded&quot;:0};align=center;" vertex="1" parent="1">
          <mxGeometry x="185" y="360" width="100" height="1310" as="geometry" />
        </mxCell>
        <mxCell id="Sw0v2CN7E1eXY13TFNiP-73" value="" style="html=1;points=[[0,0,0,0,5],[0,1,0,0,-5],[1,0,0,0,5],[1,1,0,0,-5]];perimeter=orthogonalPerimeter;outlineConnect=0;targetShapes=umlLifeline;portConstraint=eastwest;newEdgeStyle={&quot;curved&quot;:0,&quot;rounded&quot;:0};" vertex="1" parent="Sw0v2CN7E1eXY13TFNiP-14">
          <mxGeometry x="45" y="680" width="10" height="40" as="geometry" />
        </mxCell>
        <mxCell id="Sw0v2CN7E1eXY13TFNiP-15" value="JobApplication" style="html=1;whiteSpace=wrap;align=center;" vertex="1" parent="1">
          <mxGeometry x="180" y="1660" width="110" height="50" as="geometry" />
        </mxCell>
        <mxCell id="Sw0v2CN7E1eXY13TFNiP-16" value="CV" style="shape=umlLifeline;perimeter=lifelinePerimeter;whiteSpace=wrap;html=1;container=1;dropTarget=0;collapsible=0;recursiveResize=0;outlineConnect=0;portConstraint=eastwest;newEdgeStyle={&quot;curved&quot;:0,&quot;rounded&quot;:0};align=center;" vertex="1" parent="1">
          <mxGeometry x="335" y="360" width="100" height="1300" as="geometry" />
        </mxCell>
        <mxCell id="Sw0v2CN7E1eXY13TFNiP-17" value="CV" style="html=1;whiteSpace=wrap;align=center;" vertex="1" parent="1">
          <mxGeometry x="330" y="1660" width="110" height="50" as="geometry" />
        </mxCell>
        <mxCell id="Sw0v2CN7E1eXY13TFNiP-18" value="Notification" style="shape=umlLifeline;perimeter=lifelinePerimeter;whiteSpace=wrap;html=1;container=1;dropTarget=0;collapsible=0;recursiveResize=0;outlineConnect=0;portConstraint=eastwest;newEdgeStyle={&quot;curved&quot;:0,&quot;rounded&quot;:0};align=center;" vertex="1" parent="1">
          <mxGeometry x="495" y="360" width="100" height="1300" as="geometry" />
        </mxCell>
        <mxCell id="Sw0v2CN7E1eXY13TFNiP-64" value="" style="html=1;points=[[0,0,0,0,5],[0,1,0,0,-5],[1,0,0,0,5],[1,1,0,0,-5]];perimeter=orthogonalPerimeter;outlineConnect=0;targetShapes=umlLifeline;portConstraint=eastwest;newEdgeStyle={&quot;curved&quot;:0,&quot;rounded&quot;:0};" vertex="1" parent="Sw0v2CN7E1eXY13TFNiP-18">
          <mxGeometry x="45" y="340" width="10" height="50" as="geometry" />
        </mxCell>
        <mxCell id="Sw0v2CN7E1eXY13TFNiP-65" value="" style="html=1;points=[[0,0,0,0,5],[0,1,0,0,-5],[1,0,0,0,5],[1,1,0,0,-5]];perimeter=orthogonalPerimeter;outlineConnect=0;targetShapes=umlLifeline;portConstraint=eastwest;newEdgeStyle={&quot;curved&quot;:0,&quot;rounded&quot;:0};" vertex="1" parent="Sw0v2CN7E1eXY13TFNiP-18">
          <mxGeometry x="45" y="780" width="10" height="40" as="geometry" />
        </mxCell>
        <mxCell id="Sw0v2CN7E1eXY13TFNiP-19" value="Notification" style="html=1;whiteSpace=wrap;align=center;" vertex="1" parent="1">
          <mxGeometry x="490" y="1660" width="110" height="50" as="geometry" />
        </mxCell>
        <mxCell id="Sw0v2CN7E1eXY13TFNiP-20" value="User" style="shape=umlLifeline;perimeter=lifelinePerimeter;whiteSpace=wrap;html=1;container=1;dropTarget=0;collapsible=0;recursiveResize=0;outlineConnect=0;portConstraint=eastwest;newEdgeStyle={&quot;curved&quot;:0,&quot;rounded&quot;:0};align=center;" vertex="1" parent="1">
          <mxGeometry x="650" y="360" width="100" height="1300" as="geometry" />
        </mxCell>
        <mxCell id="Sw0v2CN7E1eXY13TFNiP-61" value="" style="html=1;points=[[0,0,0,0,5],[0,1,0,0,-5],[1,0,0,0,5],[1,1,0,0,-5]];perimeter=orthogonalPerimeter;outlineConnect=0;targetShapes=umlLifeline;portConstraint=eastwest;newEdgeStyle={&quot;curved&quot;:0,&quot;rounded&quot;:0};" vertex="1" parent="Sw0v2CN7E1eXY13TFNiP-20">
          <mxGeometry x="45" y="120" width="10" height="30" as="geometry" />
        </mxCell>
        <mxCell id="Sw0v2CN7E1eXY13TFNiP-62" value="" style="html=1;points=[[0,0,0,0,5],[0,1,0,0,-5],[1,0,0,0,5],[1,1,0,0,-5]];perimeter=orthogonalPerimeter;outlineConnect=0;targetShapes=umlLifeline;portConstraint=eastwest;newEdgeStyle={&quot;curved&quot;:0,&quot;rounded&quot;:0};" vertex="1" parent="Sw0v2CN7E1eXY13TFNiP-20">
          <mxGeometry x="45" y="220" width="10" height="38" as="geometry" />
        </mxCell>
        <mxCell id="Sw0v2CN7E1eXY13TFNiP-21" value="User" style="html=1;whiteSpace=wrap;align=center;" vertex="1" parent="1">
          <mxGeometry x="645" y="1660" width="110" height="50" as="geometry" />
        </mxCell>
        <mxCell id="Sw0v2CN7E1eXY13TFNiP-22" value="signup()" style="html=1;verticalAlign=bottom;endArrow=block;curved=0;rounded=0;align=center;" edge="1" parent="1" target="Sw0v2CN7E1eXY13TFNiP-10">
          <mxGeometry width="80" relative="1" as="geometry">
            <mxPoint x="-464" y="466" as="sourcePoint" />
            <mxPoint x="-124.5" y="466" as="targetPoint" />
          </mxGeometry>
        </mxCell>
        <mxCell id="Sw0v2CN7E1eXY13TFNiP-23" value="&lt;div style=&quot;&quot;&gt;createAccount()&lt;/div&gt;" style="html=1;verticalAlign=bottom;endArrow=block;curved=0;rounded=0;align=center;" edge="1" parent="1">
          <mxGeometry width="80" relative="1" as="geometry">
            <mxPoint x="-120" y="481" as="sourcePoint" />
            <mxPoint x="699.5000000000005" y="481" as="targetPoint" />
          </mxGeometry>
        </mxCell>
        <mxCell id="Sw0v2CN7E1eXY13TFNiP-24" value="accountCreated()" style="html=1;verticalAlign=bottom;endArrow=open;dashed=1;endSize=8;curved=0;rounded=0;align=center;" edge="1" parent="1" source="Sw0v2CN7E1eXY13TFNiP-59">
          <mxGeometry relative="1" as="geometry">
            <mxPoint x="699.4999999999995" y="517" as="sourcePoint" />
            <mxPoint x="-470" y="517" as="targetPoint" />
          </mxGeometry>
        </mxCell>
        <mxCell id="Sw0v2CN7E1eXY13TFNiP-25" value="login()" style="html=1;verticalAlign=bottom;endArrow=block;curved=0;rounded=0;align=center;" edge="1" parent="1">
          <mxGeometry width="80" relative="1" as="geometry">
            <mxPoint x="-465" y="556" as="sourcePoint" />
            <mxPoint x="-122" y="556" as="targetPoint" />
          </mxGeometry>
        </mxCell>
        <mxCell id="Sw0v2CN7E1eXY13TFNiP-26" value="&lt;div style=&quot;&quot;&gt;authenticate()&lt;/div&gt;" style="html=1;verticalAlign=bottom;endArrow=block;curved=0;rounded=0;align=center;" edge="1" parent="1">
          <mxGeometry width="80" relative="1" as="geometry">
            <mxPoint x="-120" y="582" as="sourcePoint" />
            <mxPoint x="700" y="582" as="targetPoint" />
          </mxGeometry>
        </mxCell>
        <mxCell id="Sw0v2CN7E1eXY13TFNiP-27" value="authenticated" style="html=1;verticalAlign=bottom;endArrow=open;dashed=1;endSize=8;curved=0;rounded=0;align=center;" edge="1" parent="1">
          <mxGeometry relative="1" as="geometry">
            <mxPoint x="699.4999999999995" y="617" as="sourcePoint" />
            <mxPoint x="-470" y="617" as="targetPoint" />
          </mxGeometry>
        </mxCell>
        <mxCell id="Sw0v2CN7E1eXY13TFNiP-28" value="uploadCV" style="html=1;verticalAlign=bottom;endArrow=block;curved=0;rounded=0;align=center;" edge="1" parent="1">
          <mxGeometry width="80" relative="1" as="geometry">
            <mxPoint x="-465" y="663.09" as="sourcePoint" />
            <mxPoint x="-122" y="663.09" as="targetPoint" />
          </mxGeometry>
        </mxCell>
        <mxCell id="Sw0v2CN7E1eXY13TFNiP-29" value="&lt;div style=&quot;&quot;&gt;upload()&lt;/div&gt;" style="html=1;verticalAlign=bottom;endArrow=block;curved=0;rounded=0;align=center;" edge="1" parent="1">
          <mxGeometry width="80" relative="1" as="geometry">
            <mxPoint x="-120" y="698.09" as="sourcePoint" />
            <mxPoint x="540" y="698" as="targetPoint" />
          </mxGeometry>
        </mxCell>
        <mxCell id="Sw0v2CN7E1eXY13TFNiP-30" value="uploadConfirmed()" style="html=1;verticalAlign=bottom;endArrow=open;dashed=1;endSize=8;curved=0;rounded=0;align=center;" edge="1" parent="1">
          <mxGeometry relative="1" as="geometry">
            <mxPoint x="540" y="748" as="sourcePoint" />
            <mxPoint x="-470" y="748.09" as="targetPoint" />
          </mxGeometry>
        </mxCell>
        <mxCell id="Sw0v2CN7E1eXY13TFNiP-31" value="CV" style="html=1;verticalAlign=bottom;endArrow=block;curved=0;rounded=0;align=center;" edge="1" parent="1">
          <mxGeometry width="80" relative="1" as="geometry">
            <mxPoint x="-370" y="793" as="sourcePoint" />
            <mxPoint x="-120" y="793.09" as="targetPoint" />
          </mxGeometry>
        </mxCell>
        <mxCell id="Sw0v2CN7E1eXY13TFNiP-32" value="createJob()" style="html=1;verticalAlign=bottom;endArrow=block;curved=0;rounded=0;align=center;" edge="1" parent="1" source="Sw0v2CN7E1eXY13TFNiP-76">
          <mxGeometry width="80" relative="1" as="geometry">
            <mxPoint x="-118" y="820.09" as="sourcePoint" />
            <mxPoint x="80" y="820" as="targetPoint" />
          </mxGeometry>
        </mxCell>
        <mxCell id="Sw0v2CN7E1eXY13TFNiP-33" value="jobPosted()" style="html=1;verticalAlign=bottom;endArrow=open;dashed=1;endSize=8;curved=0;rounded=0;align=center;" edge="1" parent="1" source="Sw0v2CN7E1eXY13TFNiP-69">
          <mxGeometry relative="1" as="geometry">
            <mxPoint x="74.5" y="847" as="sourcePoint" />
            <mxPoint x="-380" y="847" as="targetPoint" />
          </mxGeometry>
        </mxCell>
        <mxCell id="Sw0v2CN7E1eXY13TFNiP-34" value="findJob()" style="html=1;verticalAlign=bottom;endArrow=block;curved=0;rounded=0;align=center;" edge="1" parent="1">
          <mxGeometry width="80" relative="1" as="geometry">
            <mxPoint x="-460" y="881" as="sourcePoint" />
            <mxPoint x="-122" y="881.0900000000001" as="targetPoint" />
          </mxGeometry>
        </mxCell>
        <mxCell id="Sw0v2CN7E1eXY13TFNiP-35" value="getJobList()" style="html=1;verticalAlign=bottom;endArrow=block;curved=0;rounded=0;align=center;" edge="1" parent="1">
          <mxGeometry width="80" relative="1" as="geometry">
            <mxPoint x="-120" y="912.0900000000001" as="sourcePoint" />
            <mxPoint x="78" y="912" as="targetPoint" />
          </mxGeometry>
        </mxCell>
        <mxCell id="Sw0v2CN7E1eXY13TFNiP-36" value="displayJobList()" style="html=1;verticalAlign=bottom;endArrow=open;dashed=1;endSize=8;curved=0;rounded=0;align=center;" edge="1" parent="1">
          <mxGeometry relative="1" as="geometry">
            <mxPoint x="-120" y="973" as="sourcePoint" />
            <mxPoint x="-460" y="973" as="targetPoint" />
          </mxGeometry>
        </mxCell>
        <mxCell id="Sw0v2CN7E1eXY13TFNiP-37" value="returnJobList()" style="html=1;verticalAlign=bottom;endArrow=open;dashed=1;endSize=8;curved=0;rounded=0;align=center;" edge="1" parent="1">
          <mxGeometry relative="1" as="geometry">
            <mxPoint x="75.5" y="946" as="sourcePoint" />
            <mxPoint x="-119" y="946" as="targetPoint" />
          </mxGeometry>
        </mxCell>
        <mxCell id="Sw0v2CN7E1eXY13TFNiP-38" value="applyForJob()&lt;span style=&quot;color: rgba(0, 0, 0, 0); font-family: monospace; font-size: 0px; background-color: rgb(251, 251, 251);&quot;&gt;%3CmxGraphModel%3E%3Croot%3E%3CmxCell%20id%3D%220%22%2F%3E%3CmxCell%20id%3D%221%22%20parent%3D%220%22%2F%3E%3CmxCell%20id%3D%222%22%20value%3D%22findJob()%22%20style%3D%22html%3D1%3BverticalAlign%3Dbottom%3BendArrow%3Dblock%3Bcurved%3D0%3Brounded%3D0%3B%22%20edge%3D%221%22%20parent%3D%221%22%3E%3CmxGeometry%20width%3D%2280%22%20relative%3D%221%22%20as%3D%22geometry%22%3E%3CmxPoint%20x%3D%22-460%22%20y%3D%22881%22%20as%3D%22sourcePoint%22%2F%3E%3CmxPoint%20x%3D%22-122%22%20y%3D%22881.0900000000001%22%20as%3D%22targetPoint%22%2F%3E%3C%2FmxGeometry%3E%3C%2FmxCell%3E%3C%2Froot%3E%3C%2FmxGraphModel%3E&lt;/span&gt;" style="html=1;verticalAlign=bottom;endArrow=block;curved=0;rounded=0;align=center;" edge="1" parent="1">
          <mxGeometry width="80" relative="1" as="geometry">
            <mxPoint x="-460" y="1020" as="sourcePoint" />
            <mxPoint x="-122" y="1020.0900000000001" as="targetPoint" />
          </mxGeometry>
        </mxCell>
        <mxCell id="Sw0v2CN7E1eXY13TFNiP-39" value="applyForJob()&lt;span style=&quot;color: rgba(0, 0, 0, 0); font-family: monospace; font-size: 0px; background-color: rgb(251, 251, 251);&quot;&gt;%3CmxGraphModel%3E%3Croot%3E%3CmxCell%20id%3D%220%22%2F%3E%3CmxCell%20id%3D%221%22%20parent%3D%220%22%2F%3E%3CmxCell%20id%3D%222%22%20value%3D%22findJob()%22%20style%3D%22html%3D1%3BverticalAlign%3Dbottom%3BendArrow%3Dblock%3Bcurved%3D0%3Brounded%3D0%3B%22%20edge%3D%221%22%20parent%3D%221%22%3E%3CmxGeometry%20width%3D%2280%22%20relative%3D%221%22%20as%3D%22geometry%22%3E%3CmxPoint%20x%3D%22-460%22%20y%3D%22881%22%20as%3D%22sourcePoint%22%2F%3E%3CmxPoint%20x%3D%22-122%22%20y%3D%22881.0900000000001%22%20as%3D%22targetPoint%22%2F%3E%3C%2FmxGeometry%3E%3C%2FmxCell%3E%3C%2Froot%3E%3C%2FmxGraphModel%3E&lt;/span&gt;" style="html=1;verticalAlign=bottom;endArrow=block;curved=0;rounded=0;align=center;" edge="1" parent="1" target="Sw0v2CN7E1eXY13TFNiP-14">
          <mxGeometry width="80" relative="1" as="geometry">
            <mxPoint x="-120" y="1040" as="sourcePoint" />
            <mxPoint x="218" y="1040.0900000000001" as="targetPoint" />
          </mxGeometry>
        </mxCell>
        <mxCell id="Sw0v2CN7E1eXY13TFNiP-40" value="linkToJob()" style="html=1;verticalAlign=bottom;endArrow=open;dashed=1;endSize=8;curved=0;rounded=0;align=center;" edge="1" parent="1">
          <mxGeometry relative="1" as="geometry">
            <mxPoint x="234" y="1079" as="sourcePoint" />
            <mxPoint x="74" y="1079" as="targetPoint" />
          </mxGeometry>
        </mxCell>
        <mxCell id="Sw0v2CN7E1eXY13TFNiP-41" value="linkToJobSeeker" style="html=1;verticalAlign=bottom;endArrow=open;dashed=1;endSize=8;curved=0;rounded=0;align=center;" edge="1" parent="1">
          <mxGeometry relative="1" as="geometry">
            <mxPoint x="70" y="1100" as="sourcePoint" />
            <mxPoint x="-470" y="1100" as="targetPoint" />
          </mxGeometry>
        </mxCell>
        <mxCell id="Sw0v2CN7E1eXY13TFNiP-42" value="sendApplicationNotification()" style="html=1;verticalAlign=bottom;endArrow=block;curved=0;rounded=0;align=center;" edge="1" parent="1" target="Sw0v2CN7E1eXY13TFNiP-18">
          <mxGeometry width="80" relative="1" as="geometry">
            <mxPoint x="-120" y="1140" as="sourcePoint" />
            <mxPoint x="235" y="1140" as="targetPoint" />
          </mxGeometry>
        </mxCell>
        <mxCell id="Sw0v2CN7E1eXY13TFNiP-43" value="notifyApplicationConfirmed()" style="html=1;verticalAlign=bottom;endArrow=open;dashed=1;endSize=8;curved=0;rounded=0;align=center;" edge="1" parent="1">
          <mxGeometry relative="1" as="geometry">
            <mxPoint x="550" y="1180" as="sourcePoint" />
            <mxPoint x="-460" y="1180" as="targetPoint" />
          </mxGeometry>
        </mxCell>
        <mxCell id="Sw0v2CN7E1eXY13TFNiP-44" value="editJob()" style="html=1;verticalAlign=bottom;endArrow=block;curved=0;rounded=0;align=center;" edge="1" parent="1">
          <mxGeometry width="80" relative="1" as="geometry">
            <mxPoint x="-370" y="1220" as="sourcePoint" />
            <mxPoint x="-120" y="1220.0900000000001" as="targetPoint" />
          </mxGeometry>
        </mxCell>
        <mxCell id="Sw0v2CN7E1eXY13TFNiP-45" value="updateJob()" style="html=1;verticalAlign=bottom;endArrow=block;curved=0;rounded=0;align=center;" edge="1" parent="1">
          <mxGeometry width="80" relative="1" as="geometry">
            <mxPoint x="-118" y="1247.0900000000001" as="sourcePoint" />
            <mxPoint x="80" y="1247" as="targetPoint" />
          </mxGeometry>
        </mxCell>
        <mxCell id="Sw0v2CN7E1eXY13TFNiP-46" value="jobUpdated()" style="html=1;verticalAlign=bottom;endArrow=open;dashed=1;endSize=8;curved=0;rounded=0;align=center;" edge="1" parent="1" source="Sw0v2CN7E1eXY13TFNiP-85">
          <mxGeometry relative="1" as="geometry">
            <mxPoint x="74.5" y="1274" as="sourcePoint" />
            <mxPoint x="-380" y="1274" as="targetPoint" />
          </mxGeometry>
        </mxCell>
        <mxCell id="Sw0v2CN7E1eXY13TFNiP-47" value="deleteJob()" style="html=1;verticalAlign=bottom;endArrow=block;curved=0;rounded=0;align=center;" edge="1" parent="1">
          <mxGeometry width="80" relative="1" as="geometry">
            <mxPoint x="-370" y="1320" as="sourcePoint" />
            <mxPoint x="-120" y="1320.0900000000001" as="targetPoint" />
          </mxGeometry>
        </mxCell>
        <mxCell id="Sw0v2CN7E1eXY13TFNiP-48" value="removeJob()" style="html=1;verticalAlign=bottom;endArrow=block;curved=0;rounded=0;align=center;" edge="1" parent="1">
          <mxGeometry width="80" relative="1" as="geometry">
            <mxPoint x="-118" y="1347.0900000000001" as="sourcePoint" />
            <mxPoint x="80" y="1347" as="targetPoint" />
          </mxGeometry>
        </mxCell>
        <mxCell id="Sw0v2CN7E1eXY13TFNiP-49" value="jobDeleted()" style="html=1;verticalAlign=bottom;endArrow=open;dashed=1;endSize=8;curved=0;rounded=0;align=center;" edge="1" parent="1" source="Sw0v2CN7E1eXY13TFNiP-87">
          <mxGeometry relative="1" as="geometry">
            <mxPoint x="74.5" y="1374" as="sourcePoint" />
            <mxPoint x="-380" y="1374" as="targetPoint" />
          </mxGeometry>
        </mxCell>
        <mxCell id="Sw0v2CN7E1eXY13TFNiP-50" value="manageUsers()" style="html=1;verticalAlign=bottom;endArrow=block;curved=0;rounded=0;align=center;" edge="1" parent="1">
          <mxGeometry width="80" relative="1" as="geometry">
            <mxPoint x="-270" y="1405" as="sourcePoint" />
            <mxPoint x="-120" y="1405" as="targetPoint" />
          </mxGeometry>
        </mxCell>
        <mxCell id="Sw0v2CN7E1eXY13TFNiP-51" value="updateUser()" style="html=1;verticalAlign=bottom;endArrow=block;curved=0;rounded=0;align=center;" edge="1" parent="1" target="Sw0v2CN7E1eXY13TFNiP-20">
          <mxGeometry width="80" relative="1" as="geometry">
            <mxPoint x="-120" y="1430.0900000000001" as="sourcePoint" />
            <mxPoint x="78" y="1430" as="targetPoint" />
          </mxGeometry>
        </mxCell>
        <mxCell id="Sw0v2CN7E1eXY13TFNiP-52" value="userUpdated()" style="html=1;verticalAlign=bottom;endArrow=open;dashed=1;endSize=8;curved=0;rounded=0;align=center;" edge="1" parent="1" source="Sw0v2CN7E1eXY13TFNiP-66">
          <mxGeometry relative="1" as="geometry">
            <mxPoint x="174.5" y="1459" as="sourcePoint" />
            <mxPoint x="-280" y="1459" as="targetPoint" />
          </mxGeometry>
        </mxCell>
        <mxCell id="Sw0v2CN7E1eXY13TFNiP-53" value="manageJobs()" style="html=1;verticalAlign=bottom;endArrow=block;curved=0;rounded=0;align=center;" edge="1" parent="1">
          <mxGeometry width="80" relative="1" as="geometry">
            <mxPoint x="-270" y="1500" as="sourcePoint" />
            <mxPoint x="-120" y="1500" as="targetPoint" />
          </mxGeometry>
        </mxCell>
        <mxCell id="Sw0v2CN7E1eXY13TFNiP-54" value="updateJob()" style="html=1;verticalAlign=bottom;endArrow=block;curved=0;rounded=0;align=center;" edge="1" parent="1">
          <mxGeometry width="80" relative="1" as="geometry">
            <mxPoint x="-120" y="1525.0900000000001" as="sourcePoint" />
            <mxPoint x="70" y="1525" as="targetPoint" />
          </mxGeometry>
        </mxCell>
        <mxCell id="Sw0v2CN7E1eXY13TFNiP-55" value="jobuserUpdated()" style="html=1;verticalAlign=bottom;endArrow=open;dashed=1;endSize=8;curved=0;rounded=0;align=center;" edge="1" parent="1">
          <mxGeometry relative="1" as="geometry">
            <mxPoint x="70" y="1554" as="sourcePoint" />
            <mxPoint x="-280" y="1554" as="targetPoint" />
          </mxGeometry>
        </mxCell>
        <mxCell id="Sw0v2CN7E1eXY13TFNiP-56" value="generateReports()" style="html=1;verticalAlign=bottom;endArrow=block;curved=0;rounded=0;align=center;" edge="1" parent="1">
          <mxGeometry width="80" relative="1" as="geometry">
            <mxPoint x="-118" y="1592.0900000000001" as="sourcePoint" />
            <mxPoint x="72" y="1592" as="targetPoint" />
          </mxGeometry>
        </mxCell>
        <mxCell id="Sw0v2CN7E1eXY13TFNiP-57" value="reportsGenerated()" style="html=1;verticalAlign=bottom;endArrow=open;dashed=1;endSize=8;curved=0;rounded=0;align=center;" edge="1" parent="1">
          <mxGeometry relative="1" as="geometry">
            <mxPoint x="72" y="1621" as="sourcePoint" />
            <mxPoint x="-120" y="1620" as="targetPoint" />
          </mxGeometry>
        </mxCell>
        <mxCell id="Sw0v2CN7E1eXY13TFNiP-60" value="" style="html=1;verticalAlign=bottom;endArrow=open;dashed=1;endSize=8;curved=0;rounded=0;align=center;" edge="1" parent="1">
          <mxGeometry relative="1" as="geometry">
            <mxPoint x="699.4999999999995" y="512" as="sourcePoint" />
            <mxPoint x="-115" y="512" as="targetPoint" />
          </mxGeometry>
        </mxCell>
        <mxCell id="Sw0v2CN7E1eXY13TFNiP-59" value="" style="html=1;points=[[0,0,0,0,5],[0,1,0,0,-5],[1,0,0,0,5],[1,1,0,0,-5]];perimeter=orthogonalPerimeter;outlineConnect=0;targetShapes=umlLifeline;portConstraint=eastwest;newEdgeStyle={&quot;curved&quot;:0,&quot;rounded&quot;:0};" vertex="1" parent="1">
          <mxGeometry x="-125" y="467" width="10" height="53" as="geometry" />
        </mxCell>
        <mxCell id="Sw0v2CN7E1eXY13TFNiP-67" value="" style="html=1;verticalAlign=bottom;endArrow=open;dashed=1;endSize=8;curved=0;rounded=0;align=center;" edge="1" parent="1" source="Sw0v2CN7E1eXY13TFNiP-20" target="Sw0v2CN7E1eXY13TFNiP-66">
          <mxGeometry relative="1" as="geometry">
            <mxPoint x="700" y="1459" as="sourcePoint" />
            <mxPoint x="-280" y="1459" as="targetPoint" />
          </mxGeometry>
        </mxCell>
        <mxCell id="Sw0v2CN7E1eXY13TFNiP-66" value="" style="html=1;points=[[0,0,0,0,5],[0,1,0,0,-5],[1,0,0,0,5],[1,1,0,0,-5]];perimeter=orthogonalPerimeter;outlineConnect=0;targetShapes=umlLifeline;portConstraint=eastwest;newEdgeStyle={&quot;curved&quot;:0,&quot;rounded&quot;:0};" vertex="1" parent="1">
          <mxGeometry x="695" y="1430" width="10" height="30" as="geometry" />
        </mxCell>
        <mxCell id="Sw0v2CN7E1eXY13TFNiP-70" value="" style="html=1;verticalAlign=bottom;endArrow=open;dashed=1;endSize=8;curved=0;rounded=0;align=center;" edge="1" parent="1" target="Sw0v2CN7E1eXY13TFNiP-69">
          <mxGeometry relative="1" as="geometry">
            <mxPoint x="74.5" y="847" as="sourcePoint" />
            <mxPoint x="-380" y="847" as="targetPoint" />
          </mxGeometry>
        </mxCell>
        <mxCell id="Sw0v2CN7E1eXY13TFNiP-69" value="" style="html=1;points=[[0,0,0,0,5],[0,1,0,0,-5],[1,0,0,0,5],[1,1,0,0,-5]];perimeter=orthogonalPerimeter;outlineConnect=0;targetShapes=umlLifeline;portConstraint=eastwest;newEdgeStyle={&quot;curved&quot;:0,&quot;rounded&quot;:0};" vertex="1" parent="1">
          <mxGeometry x="70" y="820" width="10" height="30" as="geometry" />
        </mxCell>
        <mxCell id="Sw0v2CN7E1eXY13TFNiP-77" value="" style="html=1;verticalAlign=bottom;endArrow=block;curved=0;rounded=0;align=center;" edge="1" parent="1" target="Sw0v2CN7E1eXY13TFNiP-76">
          <mxGeometry width="80" relative="1" as="geometry">
            <mxPoint x="-118" y="820.09" as="sourcePoint" />
            <mxPoint x="80" y="820" as="targetPoint" />
          </mxGeometry>
        </mxCell>
        <mxCell id="Sw0v2CN7E1eXY13TFNiP-76" value="" style="html=1;points=[[0,0,0,0,5],[0,1,0,0,-5],[1,0,0,0,5],[1,1,0,0,-5]];perimeter=orthogonalPerimeter;outlineConnect=0;targetShapes=umlLifeline;portConstraint=eastwest;newEdgeStyle={&quot;curved&quot;:0,&quot;rounded&quot;:0};" vertex="1" parent="1">
          <mxGeometry x="-125" y="795" width="10" height="55" as="geometry" />
        </mxCell>
        <mxCell id="Sw0v2CN7E1eXY13TFNiP-83" value="" style="html=1;points=[[0,0,0,0,5],[0,1,0,0,-5],[1,0,0,0,5],[1,1,0,0,-5]];perimeter=orthogonalPerimeter;outlineConnect=0;targetShapes=umlLifeline;portConstraint=eastwest;newEdgeStyle={&quot;curved&quot;:0,&quot;rounded&quot;:0};" vertex="1" parent="1">
          <mxGeometry x="71" y="1591" width="10" height="30" as="geometry" />
        </mxCell>
        <mxCell id="Sw0v2CN7E1eXY13TFNiP-86" value="" style="html=1;verticalAlign=bottom;endArrow=open;dashed=1;endSize=8;curved=0;rounded=0;align=center;" edge="1" parent="1" target="Sw0v2CN7E1eXY13TFNiP-85">
          <mxGeometry relative="1" as="geometry">
            <mxPoint x="74.5" y="1274" as="sourcePoint" />
            <mxPoint x="-380" y="1274" as="targetPoint" />
          </mxGeometry>
        </mxCell>
        <mxCell id="Sw0v2CN7E1eXY13TFNiP-85" value="" style="html=1;points=[[0,0,0,0,5],[0,1,0,0,-5],[1,0,0,0,5],[1,1,0,0,-5]];perimeter=orthogonalPerimeter;outlineConnect=0;targetShapes=umlLifeline;portConstraint=eastwest;newEdgeStyle={&quot;curved&quot;:0,&quot;rounded&quot;:0};" vertex="1" parent="1">
          <mxGeometry x="-125" y="1220" width="10" height="60" as="geometry" />
        </mxCell>
        <mxCell id="Sw0v2CN7E1eXY13TFNiP-88" value="" style="html=1;verticalAlign=bottom;endArrow=open;dashed=1;endSize=8;curved=0;rounded=0;align=center;" edge="1" parent="1" target="Sw0v2CN7E1eXY13TFNiP-87">
          <mxGeometry relative="1" as="geometry">
            <mxPoint x="74.5" y="1374" as="sourcePoint" />
            <mxPoint x="-380" y="1374" as="targetPoint" />
          </mxGeometry>
        </mxCell>
        <mxCell id="Sw0v2CN7E1eXY13TFNiP-87" value="" style="html=1;points=[[0,0,0,0,5],[0,1,0,0,-5],[1,0,0,0,5],[1,1,0,0,-5]];perimeter=orthogonalPerimeter;outlineConnect=0;targetShapes=umlLifeline;portConstraint=eastwest;newEdgeStyle={&quot;curved&quot;:0,&quot;rounded&quot;:0};" vertex="1" parent="1">
          <mxGeometry x="-125" y="1320" width="10" height="60" as="geometry" />
        </mxCell>
      </root>
    </mxGraphModel>
  </diagram>
</mxfile>
